<?xml version="1.0" encoding="utf-8"?>
<!-- Generator: Adobe Illustrator 25.0.0, SVG Export Plug-In . SVG Version: 6.00 Build 0)  -->
<svg version="1.1" id="Layer_1" xmlns="http://www.w3.org/2000/svg" xmlns:xlink="http://www.w3.org/1999/xlink" x="0px" y="0px"
	 viewBox="0 0 36 36" style="enable-background:new 0 0 36 36;" xml:space="preserve">
<style type="text/css">
	.st0{fill:#FFFFFF;}
</style>
<g>
	<path class="st0" d="M4.9,0C3.1,0,1.6,1.5,1.6,3.3v4.9h26.2V3.3c0-1.8-1.5-3.3-3.3-3.3H4.9z M1.6,11.5v9.8h10.8
		c1.9-4.8,6.6-8.2,12.1-8.2c1.1,0,2.2,0.2,3.3,0.4v-2.1H1.6z M24.5,16.4c-5.4,0-9.8,4.4-9.8,9.8s4.4,9.8,9.8,9.8s9.8-4.4,9.8-9.8
		S29.9,16.4,24.5,16.4z M24.5,19.6c3.6,0,6.5,2.9,6.5,6.5s-2.9,6.5-6.5,6.5S18,29.8,18,26.2S20.9,19.6,24.5,19.6z M25.2,21.5
		l-2.6,4.9l3.4,3.4l1.7-1.7L25.6,26l1.8-3.3L25.2,21.5z M1.6,24.5v4.9c0,1.8,1.5,3.3,3.3,3.3h8.3c-1.1-1.9-1.8-4.2-1.8-6.5
		c0-0.6,0-1.1,0.1-1.6H1.6z"/>
</g>
</svg>
