<?xml version="1.0" encoding="UTF-8"?>
<svg width="16px" height="16px" viewBox="0 0 16 16" version="1.1" xmlns="http://www.w3.org/2000/svg" xmlns:xlink="http://www.w3.org/1999/xlink">
    <!-- Generator: Sketch 52.2 (67145) - http://www.bohemiancoding.com/sketch -->
    <title>search - FontAwesome</title>
    <desc>Created with Sketch.</desc>
    <g id="Mobile" stroke="none" stroke-width="1" fill="none" fill-rule="evenodd">
        <g id="M-Homepage-menu02" transform="translate(-298.000000, -52.000000)" fill="#FFFFFF">
            <path d="M309.076923,58.7692308 C309.076923,57.5833274 308.655453,56.5689145 307.8125,55.7259615 C306.969547,54.8830086 305.955134,54.4615385 304.769231,54.4615385 C303.583327,54.4615385 302.568914,54.8830086 301.725962,55.7259615 C300.883009,56.5689145 300.461538,57.5833274 300.461538,58.7692308 C300.461538,59.9551341 300.883009,60.9695471 301.725962,61.8125 C302.568914,62.6554529 303.583327,63.0769231 304.769231,63.0769231 C305.955134,63.0769231 306.969547,62.6554529 307.8125,61.8125 C308.655453,60.9695471 309.076923,59.9551341 309.076923,58.7692308 Z M314,66.7692308 C314,67.1025658 313.878206,67.3910244 313.634615,67.6346154 C313.391024,67.8782063 313.102566,68 312.769231,68 C312.423075,68 312.134617,67.8782063 311.903846,67.6346154 L308.605769,64.3461538 C307.458328,65.1410296 306.179494,65.5384615 304.769231,65.5384615 C303.85256,65.5384615 302.975966,65.3605787 302.139423,65.0048077 C301.30288,64.6490367 300.581734,64.1682723 299.975962,63.5625 C299.370189,62.9567277 298.889425,62.2355811 298.533654,61.3990385 C298.177883,60.5624958 298,59.685902 298,58.7692308 C298,57.8525595 298.177883,56.9759657 298.533654,56.1394231 C298.889425,55.3028804 299.370189,54.5817338 299.975962,53.9759615 C300.581734,53.3701893 301.30288,52.8894249 302.139423,52.5336538 C302.975966,52.1778828 303.85256,52 304.769231,52 C305.685902,52 306.562496,52.1778828 307.399038,52.5336538 C308.235581,52.8894249 308.956728,53.3701893 309.5625,53.9759615 C310.168272,54.5817338 310.649037,55.3028804 311.004808,56.1394231 C311.360579,56.9759657 311.538462,57.8525595 311.538462,58.7692308 C311.538462,60.1794942 311.14103,61.4583276 310.346154,62.6057692 C309.816237,63.3707303 310.915596,64.4700893 313.644231,65.9038462 C313.881411,66.1410268 314,66.4294855 314,66.7692308 Z" id="search---FontAwesome"></path>
        </g>
    </g>
</svg>